<svg xmlns="http://www.w3.org/2000/svg" width="170" height="95" viewBox="0 0 170 95" fill="none">
<g clip-path="url(#clip0_234_718)">
<path d="M17.4747 0H0.361023V67.364H17.4747C28.2207 67.364 36.5471 64.4001 42.2235 58.5567C47.8922 52.7133 50.7726 44.0826 50.7726 32.8873C50.7726 21.6919 47.8922 13.9827 42.2158 8.40034C36.5317 2.82571 28.2053 0 17.4747 0ZM46.5019 32.8796C46.5019 38.0319 45.8644 42.6006 44.6123 46.4476C43.4064 50.1563 41.5783 53.2969 39.1971 55.7924C36.8236 58.2803 33.851 60.1769 30.3637 61.4361C26.7536 62.7338 22.4828 63.3942 17.6667 63.3942H4.68553V3.96981H17.6667C22.4982 3.96981 26.7843 4.59946 30.4098 5.84338C33.9048 7.04124 36.8774 8.85338 39.2509 11.2261C41.6167 13.591 43.4294 16.5626 44.6277 20.0641C45.872 23.696 46.5019 28.0114 46.5019 32.8873V32.8796Z" fill="white"/>
<path d="M113.666 0.0767822H96.7983V62.4804L96.5755 62.5802C93.5952 63.947 90.4383 64.6381 87.1814 64.6381C83.9246 64.6381 80.7677 63.947 77.7874 62.5802L77.5646 62.4804V0.0767822H60.6967V42.0171C60.6967 56.614 72.5795 68.4927 87.1814 68.4927C101.783 68.4927 113.666 56.614 113.666 42.0171V0.0767822ZM73.7163 60.2076L73.1018 59.7161C67.6636 55.4008 64.545 48.9508 64.545 42.0171V3.92374H73.7163V60.2076ZM109.81 42.2244C109.749 49.0813 106.63 55.4545 101.253 59.7161L100.639 60.2076V3.92374H109.81V42.2167V42.2244Z" fill="white"/>
<path d="M169.923 3.96213V0.0153503H124.343V67.4408H169.923V63.5017H128.291V35.7053H161.543V31.7585H128.291V3.96213H169.923Z" fill="white"/>
<path d="M1.82044 82.7288H0V94.4463H1.82044V82.7288Z" fill="white"/>
<path d="M14.4176 90.7299L7.58133 82.7288H6.62886V94.4463H8.43394V86.499L15.1473 94.4463H16.2227V82.7288H14.4176V90.7299Z" fill="white"/>
<path d="M26.4847 92.8568C25.2788 92.8568 24.2802 92.4575 23.4737 91.6666C22.6672 90.8758 22.2678 89.8622 22.2678 88.6259C22.2678 87.3897 22.6825 86.3608 23.4891 85.5315C24.3109 84.7099 25.3095 84.2952 26.5001 84.2952C28.0056 84.2952 29.2269 84.9325 30.1947 86.2149L31.4929 85.0401C30.9859 84.2799 30.2869 83.6733 29.3805 83.2202C28.4741 82.7595 27.5063 82.5215 26.4463 82.5215C24.7641 82.5215 23.3354 83.0897 22.1449 84.2492C20.9543 85.3933 20.3705 86.8522 20.3705 88.6259C20.3705 90.3997 20.9543 91.8125 22.1141 92.9413C23.274 94.07 24.7027 94.6229 26.4002 94.6229C28.5586 94.6229 30.4636 93.6093 31.5543 92.1043L30.2562 90.9602C29.2884 92.2272 28.021 92.8645 26.4847 92.8645V92.8568Z" fill="white"/>
<path d="M40.5413 82.5215C38.8591 82.5215 37.4304 83.1204 36.2398 84.3106C35.0493 85.5008 34.4655 86.9443 34.4655 88.6413C34.4655 90.3382 35.0339 91.7511 36.1938 92.9029C37.3536 94.0623 38.7977 94.6306 40.4952 94.6306C42.1928 94.6306 43.6675 94.047 44.8581 92.8722C46.0487 91.6973 46.6325 90.2691 46.6325 88.5875C46.6325 86.9059 46.0487 85.4777 44.8581 84.2875C43.6675 83.0974 42.2388 82.5138 40.5413 82.5138V82.5215ZM43.5062 91.6359C42.6997 92.4422 41.7165 92.8415 40.5413 92.8415C39.3661 92.8415 38.3675 92.4268 37.561 91.6206C36.7698 90.8143 36.3704 89.8007 36.3704 88.6106C36.3704 87.4204 36.7698 86.3761 37.5764 85.5699C38.3829 84.7483 39.3814 84.3336 40.5413 84.3336C41.7012 84.3336 42.6997 84.7483 43.5062 85.5545C44.3128 86.3608 44.7275 87.3974 44.7275 88.6183C44.7275 89.8391 44.3128 90.8373 43.5062 91.6436V91.6359Z" fill="white"/>
<path d="M58.7227 86.2916C58.7227 85.3088 58.3924 84.4718 57.7395 83.7731C57.0866 83.0743 56.1572 82.7288 54.9358 82.7288H50.7957V94.4463H52.6161V89.8468H54.1677L57.0251 94.4463H59.2296L56.1034 89.6702C57.8009 89.2095 58.7227 87.8274 58.7227 86.2916ZM52.6161 88.1499V84.4565H54.9282C56.1341 84.4565 56.8331 85.2474 56.8331 86.2763C56.8331 87.3052 56.1187 88.1499 54.644 88.1499H52.6161Z" fill="white"/>
<path d="M68.5392 82.7288H64.4912V94.4463H66.3117V90.1002H68.3702C69.6991 90.1002 70.7207 89.7547 71.3966 89.0406C72.0802 88.3265 72.4259 87.4741 72.4259 86.4375C72.4259 85.4009 72.0956 84.5333 71.4273 83.8191C70.7744 83.0897 69.8066 82.7288 68.5238 82.7288H68.5392ZM68.4317 88.4186H66.3193V84.4411H68.616C69.8681 84.4411 70.5824 85.3165 70.5824 86.4068C70.5824 87.4972 69.8373 88.4186 68.424 88.4186H68.4317Z" fill="white"/>
<path d="M81.7355 82.5215C80.0533 82.5215 78.6246 83.1204 77.434 84.3106C76.2434 85.5008 75.6597 86.9443 75.6597 88.6413C75.6597 90.3382 76.2281 91.7511 77.3879 92.9029C78.5478 94.0623 79.9919 94.6306 81.6894 94.6306C83.3869 94.6306 84.8617 94.047 86.0523 92.8722C87.2429 91.6973 87.8267 90.2691 87.8267 88.5875C87.8267 86.9059 87.2429 85.4777 86.0523 84.2875C84.8617 83.0974 83.433 82.5138 81.7355 82.5138V82.5215ZM84.7004 91.6359C83.8939 92.4422 82.9107 92.8415 81.7355 92.8415C80.5603 92.8415 79.5617 92.4268 78.7552 91.6206C77.964 90.8143 77.5646 89.8007 77.5646 88.6106C77.5646 87.4204 77.964 86.3761 78.7706 85.5699C79.5771 84.7483 80.5756 84.3336 81.7355 84.3336C82.8953 84.3336 83.8939 84.7483 84.7004 85.5545C85.5069 86.3608 85.9217 87.3974 85.9217 88.6183C85.9217 89.8391 85.5069 90.8373 84.7004 91.6436V91.6359Z" fill="white"/>
<path d="M99.9169 86.2916C99.9169 85.3088 99.5866 84.4718 98.9337 83.7731C98.2808 83.0743 97.3513 82.7288 96.13 82.7288H91.9899V94.4463H93.8103V89.8468H95.3619L98.2193 94.4463H100.424L97.2976 89.6702C98.9951 89.2095 99.9169 87.8274 99.9169 86.2916ZM93.8103 88.1499V84.4565H96.1223C97.3283 84.4565 98.0273 85.2474 98.0273 86.2763C98.0273 87.3052 97.3129 88.1499 95.8381 88.1499H93.8103Z" fill="white"/>
<path d="M108.189 82.7288L103.527 94.4463H105.493L106.607 91.5591H110.924L112.038 94.4463H114.004L109.388 82.7288H108.197H108.189ZM107.191 89.8775L108.773 85.6313L110.356 89.8775H107.183H107.191Z" fill="white"/>
<path d="M121.954 82.7288H117.53V94.4463H121.816C123.56 94.4463 124.927 93.9241 125.925 92.8798C126.924 91.8356 127.431 90.4074 127.431 88.6182C127.431 86.8291 126.939 85.3856 125.956 84.3183C124.988 83.2586 123.659 82.7365 121.962 82.7365L121.954 82.7288ZM124.558 91.5438C123.921 92.3193 123.037 92.7032 121.893 92.7032H119.358V84.4718H121.908C123.037 84.4718 123.921 84.8557 124.558 85.6313C125.211 86.4068 125.526 87.3743 125.526 88.5645C125.526 89.7547 125.211 90.7682 124.558 91.5438Z" fill="white"/>
<path d="M137.025 82.5215C135.342 82.5215 133.914 83.1204 132.723 84.3106C131.533 85.5008 130.949 86.9443 130.949 88.6413C130.949 90.3382 131.517 91.7511 132.677 92.9029C133.837 94.0623 135.281 94.6306 136.979 94.6306C138.676 94.6306 140.151 94.047 141.341 92.8722C142.532 91.6973 143.116 90.2691 143.116 88.5875C143.116 86.9059 142.532 85.4777 141.341 84.2875C140.151 83.0974 138.722 82.5138 137.025 82.5138V82.5215ZM139.99 91.6359C139.183 92.4422 138.2 92.8415 137.025 92.8415C135.849 92.8415 134.851 92.4268 134.044 91.6206C133.253 90.8143 132.854 89.8007 132.854 88.6106C132.854 87.4204 133.253 86.3761 134.06 85.5699C134.866 84.7483 135.865 84.3336 137.025 84.3336C138.185 84.3336 139.183 84.7483 139.99 85.5545C140.796 86.3608 141.211 87.3974 141.211 88.6183C141.211 89.8391 140.796 90.8373 139.99 91.6436V91.6359Z" fill="white"/>
<path d="M155.206 86.2916C155.206 85.3088 154.876 84.4718 154.223 83.7731C153.57 83.0743 152.641 82.7288 151.419 82.7288H147.279V94.4463H149.099V89.8468H150.651L153.508 94.4463H155.713L152.587 89.6702C154.284 89.2095 155.206 87.8274 155.206 86.2916ZM149.099 88.1499V84.4565H151.412C152.617 84.4565 153.316 85.2474 153.316 86.2763C153.316 87.3052 152.602 88.1499 151.127 88.1499H149.099Z" fill="white"/>
<path d="M165.391 82.7288H164.201L159.538 94.4463H161.505L162.618 91.5591H166.935L168.049 94.4463H170.015L165.399 82.7288H165.391ZM163.202 89.8775L164.784 85.6313L166.367 89.8775H163.194H163.202Z" fill="white"/>
</g>
<defs>
<clipPath id="clip0_234_718">
<rect width="170" height="94.6305" fill="white"/>
</clipPath>
</defs>
</svg>